<svg width="201" height="111" viewBox="0 0 201 111" fill="none" xmlns="http://www.w3.org/2000/svg">
<path d="M105.078 106.274C101.867 103.788 99.0895 104.562 95.723 106.141C64.3164 120.872 28.0184 100.312 22.2391 64.7106C21.392 59.492 20.8887 54.3035 22.2866 49.0732C22.8351 47.0211 22.2351 46.3492 20.2751 46.3167C17.7548 46.2749 15.2325 46.3412 12.7129 46.2798C11.4989 46.2502 10.7626 46.7013 10.3115 47.9112C9.43007 50.2758 8.23316 52.5131 7.58514 55.0965C8.81948 55.6468 10.0241 55.2852 11.1709 55.4447C11.7464 55.5248 12.3262 55.6415 12.3267 56.4259C12.3272 57.2153 11.7504 57.3788 11.1695 57.382C8.0189 57.3991 4.86806 57.3971 1.71748 57.3749C1.12869 57.3708 0.559491 57.1831 0.606619 56.3844C0.651316 55.6269 1.24995 55.3336 1.79585 55.4572C5.05088 56.1944 5.73633 53.7759 6.66848 51.3989C10.9445 40.495 15.294 29.6226 19.6345 18.7465C19.9983 17.8351 20.2049 16.6832 21.4873 16.6514C22.8081 16.6187 22.9574 17.8408 23.3539 18.7105C24.8539 22.0007 26.2981 25.3187 27.7411 28.5765C28.6228 28.5535 28.7678 27.9058 29.0352 27.4325C37.8696 11.7993 51.1344 3.0948 68.1123 0.542857C78.7312 -1.05326 88.854 1.19032 98.3991 6.22786C99.7926 6.96333 100.893 7.02977 102.304 6.26361C109.303 2.46439 116.817 0.229744 124.655 0.145131C140.361 -0.0244286 153.988 5.46363 164.797 17.7414C165.608 18.6624 165.57 18.6991 165.788 20.0744C164.256 20.1165 163.404 18.9446 162.517 18.036C156.662 12.0401 149.844 7.71294 142.111 4.93358C141.941 4.87256 141.745 4.89088 141.281 4.84364C147.868 9.77151 152.393 16.0812 155.614 23.465C155.979 24.3018 156.379 25.0996 157.225 25.379C160.453 26.446 161.197 29.3952 161.989 32.2541C162.395 33.7185 162.524 35.2555 162.512 36.8107C162.472 41.8656 162.567 46.9222 162.486 51.9759C162.456 53.8258 162.923 54.6417 164.846 54.5476C167.842 54.4009 170.849 54.5088 173.724 54.5088C174.075 54.0184 173.877 53.7696 173.702 53.558C169.317 48.2491 168.993 42.0479 170.141 35.5563C170.567 33.1482 172.086 30.9187 170.884 28.1186C172.986 29.6239 174.057 28.0814 175.298 27.1379C182.457 21.6953 193.012 23.1799 197.551 30.3791C199.719 33.8169 200.527 37.7036 200.315 41.841C200.236 43.4006 199.302 43.3385 198.295 43.3394C193.043 43.3441 187.79 43.4218 182.54 43.3139C180.542 43.2729 180.056 43.7892 180.456 45.9439C181.544 51.8157 183.755 54.7433 188.449 55.1901C191.735 55.5029 194.804 54.4229 197.432 52.2179C197.953 51.7802 198.473 50.8842 199.181 51.5588C200.039 52.3769 199.117 53.0472 198.618 53.5373C195.275 56.8183 191.254 58.1629 186.713 57.9773C184.347 57.8807 181.981 57.8372 179.524 56.9616C178.898 60.8027 178.774 64.4397 178.04 67.9941C173.65 89.261 155.528 106.928 134.971 110.24C124.636 111.905 114.794 110.532 105.078 106.274ZM117.978 19.8026C116.049 21.6122 115.853 22.79 117.73 24.0894C118.893 24.8949 119.183 25.8826 119.52 27.0447C119.679 27.5943 119.842 28.1934 120.173 28.6298C122.21 31.3201 123.458 34.4888 124.439 37.6452C125.329 40.5068 125.336 43.6703 125.711 46.7035C125.744 46.9744 125.663 47.2955 125.06 47.4182C124.618 45.5617 124.227 43.6653 123.708 41.808C123.16 39.8432 122.606 37.8631 121.837 35.9875C121.143 34.294 121.181 32.1608 119.212 30.6818C119.212 38.4488 119.212 45.8322 119.212 53.2155C119.212 54.3224 119.894 54.4849 120.756 54.5192C122.914 54.6052 125.064 54.4965 127.235 54.7579C129.781 55.0645 130.252 54.3983 130.254 51.6567C130.261 44.6969 130.275 37.737 130.241 30.7774C130.236 29.6166 129.999 28.4579 129.885 27.2965C129.814 26.5813 129.411 26.3553 128.774 26.2366C128.067 26.1049 126.742 26.7824 126.868 25.3343C126.974 24.1127 128.216 24.7267 128.964 24.606C129.511 24.5177 130.081 24.59 130.642 24.59C133.482 24.5901 136.323 24.59 139.557 24.59C137.533 17.2029 136.073 10.0775 131.237 4.51867C128.607 1.49503 124.366 1.6231 121.524 4.47225C120.3 5.69925 119.389 7.17812 118.367 8.57156C117.626 9.58226 117.604 10.3735 118.36 11.4873C120.275 14.3107 120.146 16.6946 117.978 19.8026ZM58.7435 48.4253C58.8938 49.1401 59.0042 49.8672 59.2013 50.5675C60.0488 53.5789 61.4502 54.7917 64.3942 54.4275C66.783 54.132 69.1038 54.6494 71.4648 54.5615C73.0062 54.5041 73.5525 53.9575 73.5465 52.3549C73.5082 42.1947 73.5235 32.0342 73.5448 21.8738C73.5478 20.431 73.1909 19.4445 71.5915 19.4012C70.9757 19.3845 70.2316 19.2851 70.3098 18.3419C70.3771 17.5311 71.0631 17.5327 71.5977 17.5789C73.2589 17.7225 73.5587 16.7868 73.5671 15.292C73.5863 11.8546 73.1179 8.42441 73.478 4.97988C73.5582 4.21298 73.464 3.36907 72.8697 2.75208C68.3033 3.72189 61.5972 16.7001 61.6686 24.6069C62.8418 24.6069 64.0196 24.5953 65.1971 24.6118C65.7887 24.6201 66.3615 24.725 66.3052 25.5598C66.2597 26.2339 65.7445 26.3206 65.2484 26.3917C64.143 26.5499 63.0204 26.0076 61.7903 26.5283C59.0451 33.3711 58.9964 40.7241 58.7435 48.4253ZM35.2838 28.5837C34.5168 28.6333 33.7496 28.7283 32.9829 28.7246C29.6562 28.7087 28.5585 30.4294 29.95 33.6084C32.422 39.2558 34.9222 44.8899 37.4385 50.5159C37.7005 51.1018 37.8556 51.84 38.6127 52.2632C38.6643 51.781 38.7143 51.4927 38.7233 51.203C38.9462 44.0517 40.1728 37.0677 42.5525 30.3877C43.3996 28.01 42.7047 24.8884 45.3527 23.2852C48.4203 16.1678 52.7976 10.1088 58.6652 5.21739C47.6145 8.98855 38.8343 15.8326 32.2071 26.0972C34.0773 26.8653 35.9811 25.9792 37.6237 27.3504C36.8098 27.8032 36.2056 28.1394 35.2838 28.5837ZM127.539 58.6034C127.534 59.6268 127.444 60.6595 127.546 61.6712C127.674 62.94 126.922 64.3418 127.867 65.4602C128.544 66.2613 128.415 66.7725 127.803 67.5053C125.691 70.0323 124.107 72.8289 124.104 76.3329C124.103 77.5898 124.15 78.6878 122.611 79.2847C121.718 79.6308 121.325 80.914 121.226 82.1492C124.237 83.5888 125.393 81.7107 125.962 78.7367C127.918 82.3146 127.918 82.3085 131.63 82.3103C133.797 82.3113 135.964 82.2975 138.13 82.363C139.535 82.4055 140.211 81.9125 140.52 80.3368C141.875 73.4291 141.813 66.3915 142.461 59.4212C142.607 57.8544 141.896 57.381 140.489 57.403C136.784 57.4609 133.079 57.4166 129.374 57.4277C128.689 57.4297 127.931 57.3242 127.539 58.6034ZM25.9793 71.391C26.9145 73.836 27.7668 76.3202 28.8036 78.717C30.483 82.5991 30.5327 82.5512 34.6199 82.2939C36.0151 82.206 37.422 82.3266 38.8182 82.2479C40.0494 82.1785 41.3227 82.5906 42.7178 81.9036C42.0032 79.3112 41.294 76.7388 40.5848 74.1664C40.1612 75.2389 40.1814 76.2478 40.1545 77.2554C40.1349 77.9907 40.1404 78.8368 39.1237 78.8092C38.2144 78.7846 38.2944 77.9894 38.2599 77.3479C38.2285 76.7635 38.2967 76.1703 38.2339 75.5913C37.6768 70.4527 39.1111 65.3902 38.7272 60.2475C38.5177 57.4403 38.6513 57.4823 35.8498 57.4087C31.908 57.3051 27.9517 57.7745 23.8202 57.0219C23.6426 61.8956 24.658 66.4904 25.9793 71.391ZM108.168 51.1713C107.762 40.7682 105.71 30.8369 100.667 21.685C99.7088 22.1941 99.5769 23.0485 99.1948 23.7138C98.4303 25.0447 98.3069 26.639 97.6777 28.0043C94.0787 35.8139 93.1762 44.2008 92.6903 52.6913C92.6145 54.0167 93.125 54.479 94.3778 54.5411C96.7471 54.6585 98.2244 53.415 99.1632 51.3424C100.04 49.4075 100.38 47.3192 100.451 45.1807C100.472 44.5414 100.396 43.7289 101.272 43.6596C102.271 43.5806 102.338 44.4087 102.344 45.1627C102.366 47.5771 102.354 49.9919 102.378 52.4062C102.384 53.0464 102.17 53.9826 102.806 54.2126C104.407 54.7908 106.168 54.8232 107.738 54.3051C108.976 53.8967 108.07 52.5066 108.168 51.1713ZM62.7012 82.3113C65.6371 82.3182 68.5745 82.2664 71.5081 82.3559C73.0619 82.4033 73.6666 81.7593 73.6079 80.17C73.5669 79.0618 73.4732 78.0309 72.9612 77.0044C71.8919 74.861 71.9812 72.6433 72.9435 70.4671C73.2075 69.87 73.5304 69.318 73.5274 68.6192C73.5138 65.4795 73.5268 62.3397 73.5211 59.2C73.5199 58.543 73.5474 57.5627 72.8079 57.5959C71.1431 57.6707 69.7857 56.6281 68.1714 56.5256C66.2628 56.4044 64.6218 57.183 62.8985 57.7486C61.5412 58.194 59.5357 57.1961 58.8526 58.6242C58.235 59.9155 58.6912 61.7693 58.6754 63.3751C58.6733 63.5945 58.6711 63.8146 58.6844 64.0334C58.8253 66.3486 58.8718 68.6048 60.3155 70.6692C61.3661 72.1715 61.6839 74.0618 59.5639 75.1848C60.1387 76.1644 60.227 76.7967 60.0746 78.402C59.8686 80.5716 60.6461 81.9242 62.7012 82.3113ZM166.977 56.6814C165.947 56.79 165.12 57.6607 163.978 57.4426C162.778 57.2134 162.276 57.7466 162.222 59.1327C162.03 64.1019 161.404 69.0218 160.221 73.8494C159.552 76.5821 158.851 79.3063 158.183 81.9594C158.793 82.4567 159.32 82.6646 159.895 82.542C162.255 82.0386 164.659 82.1089 167.005 82.354C169.742 82.6401 171.004 81.3034 172.058 78.9011C174.92 72.3801 176.663 65.5993 177.185 58.4439C177.286 57.0655 176.956 56.4354 175.671 56.5751C172.877 56.879 170.084 56.5832 166.977 56.6814ZM48.5022 71.5687C48.4979 72.9602 48.5873 74.3612 48.4598 75.7402C48.3578 76.8426 49.1282 78.7276 47.4022 78.7731C45.5724 78.8213 46.3583 76.9043 46.3063 75.8339C46.1713 73.0567 45.6814 72.681 42.8227 73.648C42.8764 75.4716 43.5969 77.157 44.0816 78.8808C45.0334 82.265 45.0872 82.252 48.4067 82.2548C50.2264 82.2564 52.0469 82.2746 53.8657 82.2276C55.2943 82.1906 56.768 82.6165 58.2485 81.8889C58.0556 80.4397 58.4294 78.8919 56.1407 78.9316C53.6025 78.9756 52.1318 77.1664 51.87 74.233C51.6245 71.4836 52.9052 69.1094 55.2125 68.6593C56.7002 68.3691 56.8013 67.5336 56.7326 66.3504C56.6055 64.1598 56.4003 61.9697 56.3872 59.7783C56.3793 58.4746 55.9486 57.8243 54.7609 57.3827C51.0795 56.0139 47.2862 57.0195 43.5594 56.8158C42.6825 56.7679 40.2517 56.9192 40.6743 59.5545C41.1707 62.6503 41.5993 65.7756 41.7694 68.9052C41.8929 71.1782 43.1043 71.2439 44.7138 71.2001C46.6713 71.1468 46.1615 69.6548 46.2566 68.5068C46.2988 67.9976 46.2611 67.4817 46.2814 66.9697C46.3084 66.2877 46.3657 65.6173 47.2451 65.5644C48.1998 65.5069 48.4494 66.1501 48.4678 66.9579C48.4995 68.3487 48.4896 69.7405 48.5022 71.5687ZM151.957 73.3757C151.88 74.6747 150.946 74.5278 150.115 74.5912C148.483 74.7154 146.805 74.2862 145.178 74.8963C146.04 77.3871 147.244 77.8354 149.576 76.578C150.162 76.2622 150.748 75.8024 151.232 76.518C151.812 77.3766 151.012 77.8283 150.51 78.2801C150.024 78.7163 149.425 78.9009 148.773 78.9643C146.661 79.1699 144.726 78.8915 143.271 76.5466C143.052 78.157 142.874 79.3627 142.726 80.5722C142.595 81.634 142.972 82.2721 144.085 82.2677C147.583 82.2539 151.082 82.2915 154.578 82.2181C156.2 82.1841 156.833 80.3158 156.378 79.5945C154.638 76.8331 155.856 73.9179 155.515 71.1193C155.419 70.3337 155.177 69.3515 156.01 68.7195C158.41 69.3868 159.054 68.9719 159.414 66.3612C159.702 64.2642 159.829 62.1431 160.105 60.0439C160.365 58.0695 159.731 57.3745 157.727 57.3579C154.36 57.3301 150.953 57.9672 147.601 56.6594C146.685 56.3017 144.584 55.7352 144.481 57.9574C144.304 61.7364 144.401 65.5304 143.896 69.3944C149.191 67.6543 151.291 68.6406 151.957 73.3757ZM85.7447 74.5611C85.1536 74.4958 84.5996 74.3605 84.6451 73.5594C84.6873 72.8155 85.2114 72.5982 85.8077 72.5665C86.6453 72.5219 87.4855 72.516 88.3244 72.5204C89.2077 72.5252 89.8799 72.2239 89.8862 71.1878C89.9109 67.0921 90.575 63.0277 90.4116 58.9224C90.3727 57.9456 90.0212 57.4316 89.0328 57.4348C84.9762 57.448 80.9196 57.4343 76.863 57.4393C75.8689 57.4405 75.5316 57.9578 75.6636 58.9948C75.9676 61.3813 76.0703 63.7864 76.539 66.1629C76.8185 67.5794 77.1695 68.4383 78.6768 68.8769C80.4822 69.4022 81.0617 71.1774 81.3331 72.9983C81.6043 74.8173 79.8502 74.3224 79.2025 74.9323C79.1165 76.2199 80.4262 75.8815 80.7635 76.7663C80.139 78.8357 81.082 80.7742 82.5801 81.8211C83.9996 82.8131 86.404 83.3672 87.7232 82.0295C89.5349 80.1922 89.0129 77.348 89.2423 74.9209C88.0689 74.396 87.0766 74.6786 85.7447 74.5611ZM110.742 66.2609C110.786 67.2101 110.779 68.1654 110.883 69.1072C111.252 72.4315 111.267 72.4096 114.444 72.5498C115.28 72.5867 116.559 72.2572 116.497 73.6947C116.441 74.9894 115.225 74.5355 114.478 74.5641C111.351 74.6837 111.319 74.7004 111.891 77.9998C111.965 78.4303 111.941 78.8881 112.067 79.2986C112.399 80.3868 111.977 81.9045 113.632 82.2596C116.281 82.8279 118.387 82.2912 119.267 80.7394C121.002 77.6813 122.205 74.5283 121.989 70.8079C121.862 68.6312 121.787 67.0352 119.121 67.4531C118.483 67.553 117.806 67.315 117.822 66.415C117.84 65.4518 118.586 65.5162 119.198 65.5006C120.525 65.4669 121.854 65.4545 123.181 65.4791C124.059 65.4954 124.686 65.2823 124.769 64.2119C124.915 62.3213 125.169 60.4364 125.238 58.5436C125.306 56.6598 124.513 56.0114 122.968 56.8162C121.887 57.3797 120.843 57.4153 119.735 57.4184C117.498 57.4246 115.262 57.4121 113.025 57.4184C110.304 57.4262 110.272 57.4323 110.367 60.3788C110.427 62.2033 110.603 64.0237 110.742 66.2609ZM152.118 38.185C152.185 35.6908 152.016 33.2217 151.369 30.8079C151.093 29.7776 150.671 28.8992 149.481 28.7522C147.885 28.5551 146.296 28.2641 144.68 28.4422C142.73 28.657 140.652 30.9755 140.647 33.0057C140.633 39.514 140.636 46.0225 140.66 52.5309C140.663 53.2636 140.353 54.3932 141.512 54.4028C142.604 54.4119 142.476 53.3089 142.466 52.551C142.416 48.8267 142.683 45.1011 142.27 41.3753C142.084 39.6997 141.907 37.9553 142.495 36.2043C143.39 36.7 143.358 37.4925 143.421 38.1695C143.759 41.8023 144.146 45.4345 144.335 49.0771C144.626 54.6849 144.563 54.6298 149.981 54.5523C151.643 54.5285 152.172 53.9021 152.144 52.2176C152.068 47.685 152.118 43.1501 152.118 38.185ZM137.279 94.5015C137.881 91.9745 138.776 89.5404 139.289 86.9751C139.646 85.1919 139.297 84.5274 137.53 84.5875C134.943 84.6754 132.348 84.7269 129.765 84.6106C127.981 84.5303 127.495 85.2722 127.511 87.0417C127.568 93.4106 127.492 99.7807 127.495 106.15C127.496 106.911 127.271 107.783 128.074 108.411C130.17 108.059 131.474 106.541 132.634 104.871C134.754 101.817 136.113 98.3717 137.279 94.5015ZM73.4362 95.5868C73.3894 92.5152 73.3323 89.4436 73.3011 86.3717C73.2893 85.205 72.8204 84.6389 71.6535 84.6417C68.715 84.6488 65.7761 84.6121 62.8379 84.5597C61.4798 84.5355 61.1307 85.1218 61.4898 86.4728C62.0881 88.7238 62.4572 91.0463 63.1311 93.2695C64.4656 97.6728 66.0001 102.007 68.8505 105.645C69.9078 106.995 71.0739 108.258 73.1293 108.452C73.7635 104.247 73.0949 100.095 73.4362 95.5868ZM66.0316 105.417C62.8241 100.251 61.1326 94.4599 59.6893 88.5675C58.732 84.6596 58.737 84.6587 54.7767 84.6598C52.087 84.6606 49.3974 84.66 46.6626 84.66C47.9378 93.2318 60.3555 106.686 67.324 107.297C66.9252 106.721 66.5599 106.193 66.0316 105.417ZM152.523 89.4344C153.138 87.9408 154.216 86.627 154.264 84.6735C150.523 84.6735 146.902 84.6787 143.281 84.6701C142.314 84.6678 141.971 85.2813 141.774 86.1512C140.088 93.598 138.085 100.917 133.512 107.439C134.117 107.336 134.394 107.327 134.647 107.238C135.108 107.077 135.56 106.881 136.007 106.678C143.559 103.239 148.411 96.9483 152.523 89.4344ZM97.0189 57.4181C96.11 57.4197 95.1996 57.4569 94.2927 57.4142C93.1404 57.36 92.6251 57.8588 92.6793 59.0935C92.9321 64.857 93.7068 70.5291 95.297 76.0777C95.4422 73.1103 95.4322 70.1547 95.4501 67.1993C95.4539 66.5617 95.3649 65.7861 96.1898 65.5877C96.9659 65.4009 97.7309 65.4352 98.232 66.263C98.5683 66.8186 98.9219 67.3626 99.2601 67.917C100.555 70.0403 101.848 72.1658 103.392 74.7026C104.068 71.9336 103.674 69.6652 103.823 67.4356C103.872 66.6951 103.587 65.6389 104.774 65.6255C105.974 65.6119 105.727 66.6754 105.739 67.4132C105.777 69.759 105.753 72.1058 105.753 74.4522C107.454 68.9619 108.139 63.3845 108.13 57.4668C106.212 57.954 104.751 55.9779 103.171 56.7118C101.249 57.6041 99.3509 57.3067 97.0189 57.4181ZM75.5021 91.7903C75.5021 97.3021 75.5021 102.814 75.5021 108.405C77.167 108.494 78.1027 107.781 78.9765 106.93C81.6065 104.372 82.9316 100.994 84.4304 97.6861C86.0867 94.0312 86.211 91.0529 83.4174 87.6085C81.5182 85.2669 79.8106 84.3637 77.1214 84.6027C75.9856 84.7037 75.4688 85.0961 75.4983 86.3128C75.5389 87.9914 75.5047 89.672 75.5021 91.7903ZM119.054 103.229C120.445 105.6 121.974 107.803 124.558 108.537C125.182 108.131 125.234 107.764 125.234 107.397C125.244 100.367 125.236 93.3364 125.266 86.3064C125.271 85.061 124.725 84.7227 123.612 84.6225C121.085 84.3953 118.931 84.6629 117.721 87.4892C117.248 88.5946 116.375 89.5428 115.574 90.4566C114.758 91.3881 114.68 92.3149 115.053 93.4664C116.108 96.7312 117.261 99.9464 119.054 103.229ZM151.642 19.8853C145.857 9.682 137.397 3.68022 133.5 3.795C138.36 10.3868 140.25 18.2226 141.893 26.4181C145.707 24.2256 149.469 23.2413 153.829 24.0023C153.003 22.4449 152.398 21.3035 151.642 19.8853ZM39.0846 93.6966C44.8419 99.4556 51.46 103.676 59.0921 106.085C53.4374 101.727 48.9521 96.2314 46.2173 89.5911C44.4477 85.2944 42.0671 83.944 37.9718 84.6316C36.1766 84.9331 34.2918 84.4049 32.2556 84.9413C34.1947 88.2686 36.4715 90.9266 39.0846 93.6966ZM146.334 104.479C155.424 100.18 162.946 93.9578 168.815 84.6382C165.161 84.6382 162.105 84.7085 159.054 84.608C157.568 84.5592 156.769 85.1296 156.187 86.5467C154.381 90.9411 152 94.9884 149.114 98.7052C147.116 101.279 144.652 103.378 142.137 105.887C143.758 105.664 144.889 105.1 146.334 104.479ZM89.609 38.9579C89.3123 33.3921 88.0531 28.0169 86.9703 22.1731C85.1816 23.9864 84.221 25.4877 84.2348 27.6906C84.2819 35.2157 84.1935 42.7417 84.1717 50.2673C84.1584 54.8751 84.1707 54.8382 88.6363 54.5334C89.8659 54.4495 90.3724 53.9944 90.3902 52.6884C90.451 48.2237 90.1146 43.7872 89.609 38.9579ZM41.3081 45.9623C41.0059 48.7537 40.5787 51.5422 40.8681 54.3155C44.015 54.3155 46.8943 54.3155 49.9313 54.3155C49.2956 52.0383 48.4899 50.1186 48.2859 47.9787C47.7496 42.3508 48.138 36.7193 48.0051 31.0925C47.9762 29.8673 48.1089 28.5886 47.0115 27.5896C45.8715 28.2388 45.0091 29.1031 44.5989 30.4277C43.0682 35.3701 41.7084 40.3514 41.3081 45.9623ZM64.6768 8.11187C65.5524 6.63878 66.428 5.16567 67.341 3.62952C59.0877 5.38024 50.3926 15.6761 47.1873 24.259C47.68 24.7585 48.2076 24.5051 48.7434 24.3525C52.907 23.167 55.3549 20.1969 56.7245 16.0564C56.9929 15.245 56.8612 14.082 58.6319 13.7735C58.6319 17.3143 58.6319 20.7633 58.6319 24.2123C58.893 24.2304 59.1541 24.2486 59.4152 24.2668C60.7324 18.8325 61.876 13.3339 64.6768 8.11187ZM187.258 26.5451C184.816 25.1065 182.964 25.7817 181.857 28.7568C180.551 32.2681 180.131 35.9702 180.125 39.7308C180.124 40.8311 180.544 41.3531 181.612 41.3459C184.061 41.3293 186.511 41.3426 188.961 41.344C189.734 41.3445 190.432 41.1419 190.414 40.1763C190.326 35.4969 190.339 30.7841 187.258 26.5451ZM97.4983 16.3142C96.8058 15.4191 96.2858 14.3594 95.2574 13.6859C93.2304 14.8249 91.8796 16.7639 90.1382 18.203C88.8361 19.2792 88.5549 20.4393 89.0812 22.0337C89.7127 23.9465 90.7203 25.9849 90.7481 27.8012C90.805 31.5195 91.7964 35.0523 91.857 39.0565C92.7759 35.8283 93.6387 32.9734 94.3837 30.0853C94.6493 29.0554 94.244 27.4383 94.8116 26.9657C96.5503 25.5181 96.6879 23.2288 97.9106 21.5947C99.2762 19.7695 99.1056 18.1712 97.4983 16.3142ZM76.0496 2.67017C75.9109 2.82854 75.6529 2.98511 75.6507 3.14555C75.5889 7.59501 75.5465 12.0448 75.5208 16.4947C75.5174 17.083 75.8762 17.489 76.4327 17.4936C79.4658 17.5188 82.4991 17.5056 85.877 17.5056C84.4515 13.5523 83.3114 9.98743 81.1926 6.87558C79.9279 5.01813 78.6189 3.21101 76.0496 2.67017ZM107.72 35.4115C107.894 35.9414 108.067 36.4713 108.241 37.0011C108.4 33.4761 108.775 29.99 108.093 26.5197C107.865 26.4322 107.679 26.3368 107.483 26.2901C106.926 26.1575 106.04 26.5122 106.036 25.501C106.032 24.3747 106.977 24.6515 107.615 24.6061C108.521 24.5417 109.434 24.5985 110.339 24.5386C111.31 24.4745 111.53 23.654 111.73 22.8609C111.91 22.1441 111.748 21.5778 111.067 21.2148C108.91 20.0645 107.732 18.2877 107.474 15.6973C107.362 14.5808 106.582 13.2767 105.216 13.8393C103.14 14.6948 101.774 19.2234 102.759 21.2993C103.773 23.4385 105.165 25.4848 105.685 27.7495C106.256 30.23 106.945 32.6634 107.72 35.4115ZM111.994 90.4681C111.826 89.7612 111.654 89.0553 111.49 88.3473C110.584 84.4312 110.586 84.4664 106.691 84.6319C105.654 84.676 105 85.0332 104.567 86.0236C103.902 87.5488 103.142 89.0286 102.455 90.5439C101.741 92.1206 103.82 96.671 105.426 97.0181C105.727 97.083 106.164 96.9893 106.394 96.7883C108.462 94.9828 110.806 93.4516 111.994 90.4681ZM94.1337 96.6523C94.6374 96.9754 95.1429 97.7064 95.7514 96.9885C96.9518 95.5721 98.2053 94.1368 98.8242 92.3411C99.2456 91.1187 98.0803 90.2381 97.6832 89.1816C97.3781 88.37 96.975 87.5986 96.6133 86.8105C95.7374 84.9019 92.3863 83.7685 90.6408 84.8406C90.3198 85.0378 90.0169 85.4781 89.9357 85.8598C88.8042 91.1742 87.6978 90.8156 92.1777 94.8966C92.7554 95.4229 93.3402 95.9406 94.1337 96.6523ZM22.0449 41.6046C20.5174 38.1861 18.9899 34.7676 17.1642 30.6819C15.2615 35.494 13.6104 39.67 11.7501 44.3751C15.0724 44.3751 17.9028 44.394 20.7328 44.3689C22.9063 44.3496 22.9841 44.1923 22.0449 41.6046ZM118.21 105.767C115.627 102.284 114.502 98.0302 112.77 93.8636C110.767 95.8024 108.999 97.5145 107.109 99.345C110.443 103.296 114.301 106.033 119.502 107.741C118.907 106.826 118.64 106.416 118.21 105.767ZM82.3918 3.67375C81.9613 4.16268 81.9338 4.18332 82.2353 4.62307C84.4929 7.91663 86.0281 11.5725 87.2411 15.3982C87.4232 15.9724 87.4414 16.7222 88.313 16.9502C90.0675 15.2721 91.8503 13.5669 93.6112 11.8828C91.9696 9.01809 87.0467 5.40442 82.3918 3.67375ZM92.4026 98.0567C90.9155 96.924 89.8728 95.1933 87.9912 94.2977C87.0339 96.6618 86.1135 98.855 85.2561 101.075C84.3818 103.338 83.0006 105.308 81.6058 107.685C86.1063 106.106 89.6569 103.751 92.7074 100.52C93.5338 99.6448 93.65 98.9591 92.4026 98.0567ZM99.4943 72.2475C98.8797 71.2703 98.2651 70.2931 97.3613 68.8561C97.3613 71.9267 97.3732 74.4058 97.3532 76.8847C97.3481 77.525 97.5651 78.319 97.002 78.7489C95.8261 79.6466 96.4976 80.5635 96.8934 81.4412C97.341 82.4337 98.2191 82.6604 99.195 82.5628C99.9596 82.4863 100.734 82.2716 101.485 82.3396C103.516 82.5234 104.494 81.5958 104.534 79.5077C102.143 77.7467 101.28 74.8414 99.4943 72.2475ZM108.605 11.6302C109.968 9.66605 111.827 8.95931 114.098 9.16265C115.05 9.24783 116.16 9.45259 116.67 8.24536C117.345 6.64801 118.325 5.23747 119.344 3.61911C117.837 3.57534 116.821 4.25156 115.772 4.76487C112.768 6.23364 110.11 8.2414 107.683 10.5883C107.271 10.9857 106.827 11.4805 107.297 12.0976C107.755 12.6978 108.138 12.3283 108.605 11.6302ZM99.9126 16.203C100.435 16.6575 100.82 16.3604 101.133 15.9203C101.992 14.7137 102.829 13.4904 103.731 12.1929C103.135 11.72 102.661 11.4207 102.277 11.0248C100.629 9.32463 99.2046 10.2666 97.9524 11.5232C96.5538 12.9265 98.364 13.5925 98.7874 14.5618C99.0142 15.0809 99.414 15.5173 99.9126 16.203ZM100.63 94.7299C98.9975 95.3599 98.615 97.1591 97.5725 98.3428C97.147 98.8259 97.5885 99.251 97.9624 99.6213C99.8781 101.518 101.326 101.304 103.536 98.7106C102.644 97.4464 101.74 96.164 100.63 94.7299ZM107.366 78.1292C107.054 79.3835 106.438 80.5624 106.448 82.0693C107.758 82.1019 109.782 83.2647 109.923 81.2787C110.135 78.3022 109.364 75.2493 108.956 71.7585C108.362 74.1175 107.9 75.9504 107.366 78.1292ZM91.065 78.6857C91.1601 79.7592 90.5579 80.7973 90.8705 81.8809C91.6474 82.4328 92.5002 82.3328 93.3159 82.3261C94.3156 82.3179 94.6462 81.7956 94.3474 80.752C93.5393 77.929 92.7807 75.0905 91.9652 72.1225C91.6629 74.2962 91.3839 76.302 91.065 78.6857ZM27.4384 54.239C27.2478 51.4925 25.528 49.5101 24.5271 46.8764C23.334 48.4327 23.8266 49.7957 23.7901 51.0449C23.6838 54.6825 23.7319 54.6841 27.4384 54.239ZM104.51 10.0588C105.014 10.3612 105.445 10.2221 105.822 9.81127C107.502 7.97915 109.456 6.48188 111.308 4.80519C108.439 5.77697 105.551 6.66098 103.043 8.42355C103.154 9.31703 103.818 9.52181 104.51 10.0588ZM91.431 6.42811C92.3794 7.29506 93.3409 8.14678 94.2731 9.03239C95.8254 10.5071 96.2956 10.4397 97.6711 8.36422C95.1946 6.84639 92.5343 5.85383 89.7363 5.1043C90.2282 5.48278 90.72 5.86126 91.431 6.42811ZM104.296 101.343C103.894 101.707 103.291 101.866 103.135 102.807C105.404 104.089 107.805 105.175 110.807 106.05C108.976 104.311 107.497 102.913 106.027 101.505C105.58 101.077 105.112 100.856 104.296 101.343ZM90.8187 105.82C93.2383 105.025 95.5715 104.041 97.9146 102.552C96.8639 101.531 96.1428 100.306 94.823 101.527C93.3885 102.855 92.0459 104.291 90.8187 105.82ZM75.5487 79.7502C75.4692 82.4924 76.2515 82.9415 79.4316 81.9791C79.0007 79.0485 78.1423 78.4676 75.5487 79.7502ZM100.589 88.7155C101.61 87.6736 102.303 86.4778 102.338 84.8506C100.953 84.587 99.6897 84.4105 98.3157 84.9383C98.7821 86.4657 99.1637 87.8519 100.589 88.7155ZM85.096 83.8602C83.951 85.2005 84.6669 86.9288 86.9581 88.2787C87.5044 87.2376 87.5677 86.1078 87.6662 84.9092C86.8576 84.5289 86.1121 84.1784 85.096 83.8602ZM148.301 70.4946C146.722 70.0882 145.696 70.6534 145.156 72.4291C146.778 72.7799 148.227 72.7895 149.669 72.3839C149.77 71.3531 149.142 71.002 148.301 70.4946ZM115.738 86.5793C115.993 86.0227 116.589 85.607 116.381 84.7575C115.396 84.5823 114.166 84.1923 113.551 85.1177C112.927 86.0578 113.336 87.2653 114.097 88.1552C114.878 87.9009 115.184 87.3127 115.738 86.5793ZM54.8769 76.3775C55.1633 76.5856 55.4327 76.828 55.7397 76.9944C56.3225 77.3104 56.9652 77.5542 57.4043 76.8116C57.7201 76.2776 57.6503 75.6289 57.2801 75.1523C56.5875 74.2608 55.5851 74.4689 54.7546 74.7376C53.9412 75.0007 54.39 75.6562 54.8769 76.3775ZM54.6118 71.3248C54.3329 71.7756 54.0178 72.308 54.7643 72.5258C55.4966 72.7395 56.3305 72.8682 56.9394 72.2226C57.3058 71.834 57.2852 71.1789 56.9617 70.7903C56.1461 69.8102 55.4853 70.6798 54.6118 71.3248ZM113.629 24.2937C114.474 24.7306 115.288 24.7615 116.295 24.0529C115.48 23.3237 114.788 22.7039 114.089 22.0786C113.45 22.7505 113.596 23.4265 113.629 24.2937ZM76.5141 74.8153C75.2659 74.4727 75.4158 75.4299 75.5401 76.104C75.7375 77.1744 76.424 77.4684 77.3801 77.0896C77.5426 76.1902 77.0424 75.6226 76.5141 74.8153ZM157.409 75.2143C157.496 75.3261 157.238 75.703 157.648 75.5576C157.694 75.5413 157.717 75.4374 157.739 75.3698C158.194 73.9613 159.088 72.6367 158.648 70.8663C157.169 72.0432 157.47 73.5555 157.409 75.2143Z" fill="#FAF2F2"/>
</svg>
