<svg width="102" height="103" viewBox="0 0 102 103" fill="none" xmlns="http://www.w3.org/2000/svg">
<g filter="url(#filter0_d_8_127)">
<path fill-rule="evenodd" clip-rule="evenodd" d="M51.0001 1.00013C78.6141 1.00013 101 23.3859 101 50.9999C101 78.6142 78.6141 101 51.0001 101C23.3862 101 1.00052 78.6142 1.00052 50.9999C1.00052 23.3859 23.3862 1.00013 51.0001 1.00013Z" fill="#11293B"/>
<path fill-rule="evenodd" clip-rule="evenodd" d="M51.0001 1.00013C78.6141 1.00013 101 23.3859 101 50.9999C101 78.6142 78.6141 101 51.0001 101C23.3862 101 1.00052 78.6142 1.00052 50.9999C1.00052 23.3859 23.3862 1.00013 51.0001 1.00013Z" fill="url(#paint0_linear_8_127)" style="mix-blend-mode:overlay"/>
</g>
<defs>
<filter id="filter0_d_8_127" x="-28.9995" y="-13.9999" width="159.999" height="160" filterUnits="userSpaceOnUse" color-interpolation-filters="sRGB">
<feFlood flood-opacity="0" result="BackgroundImageFix"/>
<feColorMatrix in="SourceAlpha" type="matrix" values="0 0 0 0 0 0 0 0 0 0 0 0 0 0 0 0 0 0 127 0" result="hardAlpha"/>
<feOffset dy="15"/>
<feGaussianBlur stdDeviation="15"/>
<feColorMatrix type="matrix" values="0 0 0 0 0.0666667 0 0 0 0 0.160784 0 0 0 0 0.231373 0 0 0 0.25 0"/>
<feBlend mode="normal" in2="BackgroundImageFix" result="effect1_dropShadow_8_127"/>
<feBlend mode="normal" in="SourceGraphic" in2="effect1_dropShadow_8_127" result="shape"/>
</filter>
<linearGradient id="paint0_linear_8_127" x1="50.5049" y1="154" x2="153.49" y2="53.0047" gradientUnits="userSpaceOnUse">
<stop stop-color="white" stop-opacity="0.01"/>
<stop offset="1" stop-color="white" stop-opacity="0.5"/>
</linearGradient>
</defs>
</svg>
